<svg width="2425" height="2470" viewBox="0 0 2425 2470" fill="none" xmlns="http://www.w3.org/2000/svg">
<path d="M1212.5 2425C1882.15 2425 2425 1882.15 2425 1212.5C2425 542.855 1882.15 0 1212.5 0C542.855 0 0 542.855 0 1212.5C0 1882.15 542.855 2425 1212.5 2425Z" fill="#12271F"/>
<g filter="url(#filter0_d_611_50)">
<path d="M1212.5 55L1226.69 1155.87C1226.99 1179.18 1245.82 1198.01 1269.13 1198.31L2370 1212.5L1269.13 1226.69C1245.82 1226.99 1226.99 1245.82 1226.69 1269.13L1212.5 2370L1198.31 1269.13C1198.01 1245.82 1179.18 1226.99 1155.87 1226.69L55 1212.5L1155.87 1198.31C1179.18 1198.01 1198.01 1179.18 1198.31 1155.87L1212.5 55Z" fill="#EDB100"/>
</g>
<g filter="url(#filter1_d_611_50)">
<path d="M1808.21 424.818L1803.28 560.31L1817.27 560.817L1817.27 560.818L1803.28 560.31L1802.32 586.888L1824.77 572.641L1939.21 500.038L1957.44 531.941L1836.72 594.764L1812.86 607.183L1836.72 619.602L1957.44 682.422L1939.21 714.325L1824.77 641.725L1817.27 653.545L1817.27 653.546L1803.28 654.055L1808.21 789.545H1771.79L1776.72 654.055L1762.73 653.545L1755.23 641.725L1640.79 714.326L1622.56 682.422L1743.28 619.602L1767.14 607.183L1743.28 594.764L1622.56 531.941L1640.79 500.038L1755.23 572.641L1777.68 586.888L1776.72 560.31L1771.79 424.818H1808.21ZM1755.23 641.725L1762.73 653.545L1776.72 654.055L1777.68 627.478L1755.23 641.725ZM1803.28 654.055L1817.27 653.545L1824.77 641.725L1802.32 627.478L1803.28 654.055Z" fill="#19B17B"/>
<mask id="mask0_611_50" style="mask-type:luminance" maskUnits="userSpaceOnUse" x="1603" y="410" width="374" height="394">
<path d="M1757.27 803.545L1762.73 653.545L1635.91 734L1603.18 676.727L1736.82 607.182L1603.18 537.636L1635.91 480.364L1762.73 560.818L1757.27 410.818H1822.73L1817.27 560.818L1944.09 480.364L1976.82 537.636L1843.18 607.182L1976.82 676.727L1944.09 734L1817.27 653.545L1822.73 803.545H1757.27Z" fill="white"/>
</mask>
<g mask="url(#mask0_611_50)">
<path d="M1757.27 803.545L1743.28 803.037L1742.75 817.545H1757.27V803.545ZM1762.73 653.545L1776.72 654.054L1777.68 627.477L1755.23 641.724L1762.73 653.545ZM1635.91 734L1623.75 740.946L1631.03 753.676L1643.41 745.822L1635.91 734ZM1603.18 676.727L1596.72 664.308L1583.8 671.03L1591.03 683.673L1603.18 676.727ZM1736.82 607.182L1743.28 619.601L1767.14 607.182L1743.28 594.763L1736.82 607.182ZM1603.18 537.636L1591.03 530.69L1583.8 543.333L1596.72 550.055L1603.18 537.636ZM1635.91 480.364L1643.41 468.542L1631.03 460.687L1623.75 473.418L1635.91 480.364ZM1762.73 560.818L1755.23 572.64L1777.68 586.887L1776.72 560.309L1762.73 560.818ZM1757.27 410.818V396.818H1742.75L1743.28 411.327L1757.27 410.818ZM1822.73 410.818L1836.72 411.327L1837.25 396.818H1822.73V410.818ZM1817.27 560.818L1803.28 560.309L1802.32 586.887L1824.77 572.64L1817.27 560.818ZM1944.09 480.364L1956.25 473.418L1948.97 460.687L1936.59 468.542L1944.09 480.364ZM1976.82 537.636L1983.28 550.055L1996.2 543.333L1988.97 530.69L1976.82 537.636ZM1843.18 607.182L1836.72 594.763L1812.86 607.182L1836.72 619.601L1843.18 607.182ZM1976.82 676.727L1988.97 683.673L1996.2 671.03L1983.28 664.308L1976.82 676.727ZM1944.09 734L1936.59 745.822L1948.97 753.676L1956.25 740.946L1944.09 734ZM1817.27 653.545L1824.77 641.724L1802.32 627.477L1803.28 654.054L1817.27 653.545ZM1822.73 803.545V817.545H1837.25L1836.72 803.037L1822.73 803.545ZM1771.26 804.054L1776.72 654.054L1748.74 653.037L1743.28 803.037L1771.26 804.054ZM1755.23 641.724L1628.41 722.178L1643.41 745.822L1770.23 665.367L1755.23 641.724ZM1648.06 727.054L1615.34 669.781L1591.03 683.673L1623.75 740.946L1648.06 727.054ZM1609.64 689.146L1743.28 619.601L1730.36 594.763L1596.72 664.308L1609.64 689.146ZM1743.28 594.763L1609.64 525.217L1596.72 550.055L1730.36 619.601L1743.28 594.763ZM1615.34 544.582L1648.06 487.31L1623.75 473.418L1591.03 530.69L1615.34 544.582ZM1628.41 492.185L1755.23 572.64L1770.23 548.996L1643.41 468.542L1628.41 492.185ZM1776.72 560.309L1771.26 410.309L1743.28 411.327L1748.74 561.327L1776.72 560.309ZM1757.27 424.818H1822.73V396.818H1757.27V424.818ZM1808.74 410.309L1803.28 560.309L1831.26 561.327L1836.72 411.327L1808.74 410.309ZM1824.77 572.64L1951.59 492.185L1936.59 468.542L1809.77 548.996L1824.77 572.64ZM1931.94 487.31L1964.66 544.582L1988.97 530.69L1956.25 473.418L1931.94 487.31ZM1970.36 525.217L1836.72 594.763L1849.64 619.601L1983.28 550.055L1970.36 525.217ZM1836.72 619.601L1970.36 689.146L1983.28 664.308L1849.64 594.763L1836.72 619.601ZM1964.66 669.781L1931.94 727.054L1956.25 740.946L1988.97 683.673L1964.66 669.781ZM1951.59 722.178L1824.77 641.724L1809.77 665.367L1936.59 745.822L1951.59 722.178ZM1803.28 654.054L1808.74 804.054L1836.72 803.037L1831.26 653.037L1803.28 654.054ZM1822.73 789.545H1757.27V817.545H1822.73V789.545Z" fill="#12271F"/>
</g>
</g>
<defs>
<filter id="filter0_d_611_50" x="5" y="55" width="2415" height="2415" filterUnits="userSpaceOnUse" color-interpolation-filters="sRGB">
<feFlood flood-opacity="0" result="BackgroundImageFix"/>
<feColorMatrix in="SourceAlpha" type="matrix" values="0 0 0 0 0 0 0 0 0 0 0 0 0 0 0 0 0 0 127 0" result="hardAlpha"/>
<feOffset dy="50"/>
<feGaussianBlur stdDeviation="25"/>
<feComposite in2="hardAlpha" operator="out"/>
<feColorMatrix type="matrix" values="0 0 0 0 0 0 0 0 0 0 0 0 0 0 0 0 0 0 0.25 0"/>
<feBlend mode="normal" in2="BackgroundImageFix" result="effect1_dropShadow_611_50"/>
<feBlend mode="normal" in="SourceGraphic" in2="effect1_dropShadow_611_50" result="shape"/>
</filter>
<filter id="filter1_d_611_50" x="1598.18" y="410.818" width="383.64" height="447.727" filterUnits="userSpaceOnUse" color-interpolation-filters="sRGB">
<feFlood flood-opacity="0" result="BackgroundImageFix"/>
<feColorMatrix in="SourceAlpha" type="matrix" values="0 0 0 0 0 0 0 0 0 0 0 0 0 0 0 0 0 0 127 0" result="hardAlpha"/>
<feOffset dy="50"/>
<feGaussianBlur stdDeviation="2.5"/>
<feComposite in2="hardAlpha" operator="out"/>
<feColorMatrix type="matrix" values="0 0 0 0 0 0 0 0 0 0 0 0 0 0 0 0 0 0 0.25 0"/>
<feBlend mode="normal" in2="BackgroundImageFix" result="effect1_dropShadow_611_50"/>
<feBlend mode="normal" in="SourceGraphic" in2="effect1_dropShadow_611_50" result="shape"/>
</filter>
</defs>
</svg>
